<?xml version="1.0" standalone="no"?>
<!DOCTYPE svg PUBLIC "-//W3C//DTD SVG 1.1//EN" "http://www.w3.org/Graphics/SVG/1.1/DTD/svg11.dtd" >
<svg xmlns="http://www.w3.org/2000/svg">
<metadata>
Created by FontForge 20120731 at Wed Nov  9 18:00:43 2016
 By admin
</metadata>
<defs>
<font id="iconfont" horiz-adv-x="1024" >
  <font-face 
    font-family="iconfont"
    font-weight="500"
    font-stretch="normal"
    units-per-em="1024"
    panose-1="2 0 6 3 0 0 0 0 0 0"
    ascent="896"
    descent="-128"
    x-height="792"
    bbox="0 -118 1036 888"
    underline-thickness="0"
    underline-position="0"
    unicode-range="U+0078-E817"
  />
<missing-glyph 
 />
    <glyph glyph-name=".notdef" 
 />
    <glyph glyph-name=".notdef" 
 />
    <glyph glyph-name=".null" horiz-adv-x="0" 
 />
    <glyph glyph-name="nonmarkingreturn" horiz-adv-x="341" 
 />
    <glyph glyph-name="x" unicode="x" horiz-adv-x="1001" 
d="M281 543q-27 -1 -53 -1h-83q-18 0 -36.5 -6t-32.5 -18.5t-23 -32t-9 -45.5v-76h912v41q0 16 -0.5 30t-0.5 18q0 13 -5 29t-17 29.5t-31.5 22.5t-49.5 9h-133v-97h-438v97zM955 310v-52q0 -23 0.5 -52t0.5 -58t-10.5 -47.5t-26 -30t-33 -16t-31.5 -4.5q-14 -1 -29.5 -0.5
t-29.5 0.5h-32l-45 128h-439l-44 -128h-29h-34q-20 0 -45 1q-25 0 -41 9.5t-25.5 23t-13.5 29.5t-4 30v167h911zM163 247q-12 0 -21 -8.5t-9 -21.5t9 -21.5t21 -8.5q13 0 22 8.5t9 21.5t-9 21.5t-22 8.5zM316 123q-8 -26 -14 -48q-5 -19 -10.5 -37t-7.5 -25t-3 -15t1 -14.5
t9.5 -10.5t21.5 -4h37h67h81h80h64h36q23 0 34 12t2 38q-5 13 -9.5 30.5t-9.5 34.5q-5 19 -11 39h-368zM336 498v228q0 11 2.5 23t10 21.5t20.5 15.5t34 6h188q31 0 51.5 -14.5t20.5 -52.5v-227h-327z" />
    <glyph glyph-name="fuwuguanli" unicode="&#xe60c;" 
d="M912 539l-400 277l-401 -277l401 -277zM512 200l-354 236l-47 -49l401 -277l400 277l-47 50zM512 48l-354 235l-47 -49l401 -277l400 277l-47 50z" />
    <glyph glyph-name="home" unicode="&#xe600;" 
d="M48 888v0v0zM846 326v-273q0 -14 -11 -25t-25 -11h-218v218h-145v-218h-218q-15 0 -25.5 11t-10.5 25v273v1v2l326 269l326 -269q1 -1 1 -3v0zM972 365l-35 -42q-4 -5 -12 -6h-1q-8 0 -12 3l-393 328l-392 -328q-7 -4 -14 -3t-11 6l-36 42q-4 5 -3.5 13t6.5 12l407 340
q18 15 43 15t43 -15l139 -116v111q0 8 5 13t13 5h109q8 0 13 -5t5 -13v-232l124 -103q6 -4 6.5 -12t-4.5 -13v0z" />
    <glyph glyph-name="zichan-o" unicode="&#xe601;" 
d="M884 650q-4 -4 -17.5 -15t-16.5 -15q70 -102 70 -227q0 -109 -54 -202t-147 -147t-202.5 -54t-202.5 54t-147 147t-54 202.5t54 202.5t147 147t202 54q82 0 156 -31.5t130 -87.5q4 5 16 17l15 15q-62 62 -144 97t-173 35t-174 -35.5t-143 -95.5t-95.5 -143t-35.5 -174.5
t35.5 -174.5t95.5 -143t143 -95.5t174 -35.5t174 35.5t143.5 95.5t96 143t35.5 174q0 142 -81 257zM647 655l-84 -155q-33 -63 -41 -84h-1q-22 50 -126 239h-79l147 -253h-120v-55h141v-77h-141v-57h141v-112h70v112h137v57h-137v77h137v55h-117l148 253h-75z" />
    <glyph glyph-name="zichan" unicode="&#xe602;" 
d="M512 877q-100 0 -191.5 -39t-157.5 -105t-105 -157.5t-39 -191.5t39 -191.5t105 -157.5t157.5 -105t191.5 -39t191.5 39t157.5 105t105 157.5t39 191.5t-39 191.5t-105 157.5t-157.5 105t-191.5 39zM718 435v-71h-162v-98h162v-71h-162v-141h-88v141h-167v71h167v98h-167
v71h141l-172 279h101l120 -209q10 -20 23 -53h1q9 26 24 56l120 206h95l-174 -279h138z" />
    <glyph glyph-name="user-o" unicode="&#xe603;" 
d="M99 -20v6q2 120 71 219t181 143v0q-51 35 -79.5 90t-28.5 117q0 104 74 178t178 74t178 -74t74 -178q0 -62 -28.5 -117t-79.5 -90v0q112 -44 180.5 -143t70.5 -219v-6h-72v6q-2 118 -81.5 208t-196.5 107h-3q-17 3 -40 3q-4 0 -7.5 -0.5t-7 -0.5h-6.5h-5.5t-4.5 -0.5
t-4 -0.5h-3h-2h-1q-120 -14 -202 -104.5t-84 -211.5v-6h-71v0zM495 744q-78 0 -133.5 -55.5t-55.5 -134t55.5 -133.5t133.5 -55t133.5 55t55.5 133.5t-55.5 134t-133.5 55.5z" />
    <glyph glyph-name="user-o-1" unicode="&#xe604;" 
d="M615 330q58 48 58 124q0 67 -47 114.5t-114 47.5t-114.5 -47.5t-47.5 -114.5q0 -75 58 -124q-106 -39 -159 -139q23 -36 54 -64q24 65 80.5 106t127.5 41t128 -41t80 -106q31 29 54 64q-53 99 -158 139zM511 366q-37 0 -63 26t-26 62.5t26 62.5t63 26t63 -26t26 -62.5
t-26 -62.5t-63 -26zM510.5 808q-91.5 0 -175 -35.5t-144 -96t-96 -144t-35.5 -175t35.5 -175t96 -144t144 -96t175 -35.5t175 35.5t144 96t96.5 144t36 175t-36 175t-96.5 144t-144 96t-175 35.5zM510.5 -21q-102.5 0 -189.5 50.5t-138 138t-51 190t51 189.5t138 138
t189.5 51t190 -51t138 -138t50.5 -189.5t-50.5 -190t-138 -138t-190 -50.5z" />
    <glyph glyph-name="cogs" unicode="&#xe605;" 
d="M672 337q0 -5 -3.5 -9.5t-7.5 -5.5l-78 -12q-5 -18 -16 -38q17 -24 45 -57q4 -6 4 -10q0 -6 -4 -10q-11 -15 -41 -44.5t-39 -29.5q-6 0 -11 3l-58 45q-18 -9 -38 -15q-5 -55 -12 -78q-3 -12 -15 -12h-93q-5 0 -9.5 3.5t-5.5 9.5l-11 76q-17 5 -38 16l-59 -45
q-3 -3 -10 -3q-5 0 -10 4q-72 66 -72 80q0 4 3 9q5 7 20.5 26.5t23.5 30.5q-11 22 -17 41l-76 12q-12 2 -12 15v92q0 5 3.5 10t7.5 5l78 12q5 18 16 38q-17 24 -45 58q-4 5 -4 10q0 6 4 10q11 15 41 44.5t39 29.5q6 0 11 -4l57 -45q17 9 39 16q5 54 11 77q4 12 15 12h93
q6 0 10.5 -3.5t4.5 -8.5l12 -77q17 -5 37 -15l60 44q4 4 9.5 4t10.5 -4q72 -67 72 -80q0 -4 -3 -10q-6 -8 -21 -27t-23 -30q12 -24 17 -41l76 -11q12 -3 12 -15v-93zM352 512q-53 0 -90.5 -37.5t-37.5 -90.5t37.5 -90.5t90.5 -37.5t90.5 37.5t37.5 90.5t-37.5 90.5
t-90.5 37.5zM992 605q0 -8 -74 -15q-6 -14 -15 -26q25 -57 25 -69q0 -2 -2 -4q-61 -35 -62 -35q-4 0 -23 23.5t-26 33.5q-10 -1 -15 -1t-15 1q-7 -10 -26 -33.5t-23 -23.5q-1 0 -62 35q-2 2 -2 4q0 12 26 69q-10 12 -15 26q-75 7 -75 15v70q0 8 75 16q6 15 15 26
q-26 57 -26 69q0 2 2 3q2 2 17.5 10.5t29.5 16.5t15 8q4 0 23 -23t26 -34q10 1 15 1t15 -1q26 36 46 56l3 1q2 0 62 -35q2 -1 2 -3q0 -12 -25 -69q8 -11 15 -26q74 -8 74 -16v-70zM992 93q0 -8 -74 -15q-6 -14 -15 -26q25 -57 25 -69q0 -3 -2 -4q-61 -35 -62 -35
q-4 0 -23 23t-26 34q-10 -1 -15 -1t-15 1q-7 -11 -26 -34t-23 -23q-1 0 -62 35q-2 1 -2 4q0 12 26 69q-10 12 -15 26q-75 7 -75 15v70q0 8 75 16q6 14 15 26q-26 56 -26 69q0 2 2 3t17.5 10t29.5 17t15 8q4 0 23 -23.5t26 -33.5q10 1 15 1t15 -1q26 36 46 56l3 1q2 0 62 -35
q2 -1 2 -3q0 -13 -25 -69q8 -12 15 -26q74 -8 74 -16v-70zM800 704q-26 0 -45 -18.5t-19 -45.5q0 -26 19 -45t45 -19q27 0 45.5 19t18.5 45.5t-19 45t-45 18.5zM800 192q-26 0 -45 -19t-19 -45t19 -45t45 -19q27 0 45.5 19t18.5 45t-19 45t-45 19z" />
    <glyph glyph-name="gongdan" unicode="&#xe606;" 
d="M315 337q-14 0 -23.5 -9.5t-9.5 -23.5t9.5 -24t23.5 -10t24 10t10 24t-10 23.5t-24 9.5v0zM315 196v0q-14 0 -23.5 -10t-9.5 -24t9.5 -24t23.5 -10t24 10t10 24t-10 24t-24 10v0zM315 479v0q-14 0 -23.5 -9.5t-9.5 -23.5t9.5 -24t23.5 -10t24 10t10 24t-10 23.5t-24 9.5
v0zM861 692v0h-93v18q0 8 -5.5 14t-14.5 6h-108q-8 36 -34 62q-39 39 -94 39t-93 -39q-27 -26 -36 -62h-107q-9 0 -15 -6t-6 -14v-18h-91q-14 0 -24 -10t-10 -24v-687q0 -14 10 -24t24 -10h697q13 0 23 10t10 24v687q0 14 -10 24t-23 10v0zM457 754q15 14 26.5 20.5
t28.5 6.5t29 -6.5t26 -20.5q4 -5 5.5 -7.5t3 -7.5t2.5 -9h-132l2 8t1.5 5.5t2.5 4t5 6.5zM307 680v0h411v-44h-411v44zM827 4v0h-630v621h58v-19q0 -8 6 -14t15 -6h472q9 0 14.5 6t5.5 14v19h59v-621v0zM707 476v0h-291q-8 0 -14 -10.5t-6 -20t6 -20t14 -10.5h291
q8 0 14.5 10.5t6.5 20t-6.5 20t-14.5 10.5v0zM707 192v0h-291q-8 0 -14 -10.5t-6 -19.5t6 -19.5t14 -10.5h291q8 0 14.5 10.5t6.5 19.5t-6.5 19.5t-14.5 10.5v0zM707 334v0h-291q-8 0 -14 -10.5t-6 -20t6 -19.5t14 -10h291q8 0 14.5 10t6.5 19.5t-6.5 20t-14.5 10.5v0z" />
    <glyph glyph-name="chanpin" unicode="&#xe607;" 
d="M962 584l-226 -226q-12 -12 -28.5 -12t-28.5 12l-225 226q-12 12 -12 28.5t12 28.5l226 225q12 12 28.5 12t28.5 -12l225 -226q12 -11 12 -28t-12 -28zM380 -76h-320q-17 0 -28.5 11.5t-11.5 28.5v320q0 17 11.5 28.5t28.5 11.5h320q17 0 28.5 -11.5t11.5 -28.5v-320
q0 -17 -11.5 -28.5t-28.5 -11.5zM380 404h-320q-17 0 -28.5 11.5t-11.5 28.5v320q0 17 11.5 28.5t28.5 11.5h320q17 0 28.5 -11.5t11.5 -28.5v-320q0 -17 -11.5 -28.5t-28.5 -11.5zM540 324h320q17 0 28.5 -11.5t11.5 -28.5v-320q0 -17 -11.5 -28.5t-28.5 -11.5h-320
q-17 0 -28.5 11.5t-11.5 28.5v320q0 17 11.5 28.5t28.5 11.5z" />
    <glyph glyph-name="dashboard" unicode="&#xe608;" 
d="M983.5 473q-40.5 95 -109 163.5t-163.5 109t-199 40.5t-199 -40.5t-163.5 -109t-109 -163.5t-40.5 -199q0 -149 81 -276q10 -16 30 -16h802q20 0 30 16q81 127 81 276q0 104 -40.5 199zM460.5 691.5q21.5 21.5 51.5 21.5t51.5 -21.5t21.5 -51.5t-21.5 -51.5t-51.5 -21.5
t-51.5 21.5t-21.5 51.5t21.5 51.5zM198 222.5q-21 -21.5 -51.5 -21.5t-52 21.5t-21.5 52t21.5 51.5t52 21t51.5 -21t21 -51.5t-21 -52zM307.5 478.5q-21.5 -21.5 -51.5 -21.5t-51.5 21.5t-21.5 52t21.5 51.5t51.5 21t51.5 -21t21.5 -51.5t-21.5 -52zM631 474l-57 -219
q28 -19 40.5 -51.5t3.5 -66.5q-11 -44 -50.5 -67t-83.5 -11.5t-67 51t-11 83.5q9 34 36 56t61 25l58 218q4 15 17 22.5t27 3.5t22 -16.5t4 -27.5zM716.5 478.5q-21.5 21.5 -21.5 52t21.5 51.5t51.5 21t51.5 -21t21.5 -51.5t-21.5 -52t-51.5 -21.5t-51.5 21.5zM929.5 222.5
q-21.5 -21.5 -52 -21.5t-51.5 21.5t-21 52t21 51.5t51.5 21t52 -21t21.5 -51.5t-21.5 -52z" />
    <glyph glyph-name="fuwushang" unicode="&#xe614;" horiz-adv-x="1108" 
d="M610 398q44 0 75 31t31 74t-31 74t-75 31t-75 -31t-31 -74.5t31 -74t75 -30.5zM890 796h-560q-61 0 -104 -43t-43 -103v-560q0 -61 43 -104t104 -43h560q60 0 103 43t43 104v560q0 60 -43 103t-103 43zM342 207q-5 -24 -5 -43h-44q-10 0 -17 7t-7 17v38q0 55 28.5 101
t76.5 70q-32 35 -32 81q0 51 35.5 86.5t86.5 35.5q1 0 3 -0.5t3 -0.5l-6 -8q-15 -20 -23 -44q-23 -7 -40 -26t-17 -43q0 -21 11.5 -39t31.5 -27q16 -6 16 -22q0 -17 -17 -23l-5 -1q-49 -12 -79.5 -51t-30.5 -90v-18h31v0zM854 115q0 -10 -7.5 -17t-17.5 -7h-438q-11 0 -18 7
t-7 17v49q0 75 42.5 136t111.5 89q-56 43 -56 114q0 60 42.5 102.5t103 42.5t103.5 -42.5t43 -102.5q0 -70 -56 -114q68 -27 111 -88.5t43 -136.5v-49zM951 188q0 -10 -7.5 -17t-17.5 -7h-43q0 19 -5 43h35v19q0 50 -31 89t-80 51l-4 1q-18 6 -18 23q0 16 17 23q19 8 31 26
t12 40t-19 41.5t-43 27.5q-7 23 -23 43q-2 4 -5 8q1 0 3 0.5t3 0.5q50 0 86 -35.5t36 -85.5q0 -47 -32 -82q48 -24 76.5 -70t28.5 -101v-38v0zM609.5 362q-85.5 0 -146 -60t-60.5 -145v-26h414v26q0 85 -61 145t-146.5 60z" />
    <glyph glyph-name="fuwu-04" unicode="&#xe6b7;" 
d="M547 719h-456q-14 0 -24.5 -10.5t-10.5 -24.5v-491q0 -14 10.5 -24.5t24.5 -10.5h70q7 46 41.5 76.5t81.5 30.5t82 -30.5t41 -76.5h140q15 0 25 10.5t10 24.5v491q0 14 -10 24.5t-25 10.5zM523 217h-72q-23 48 -68 77.5t-99 29.5t-99 -29.5t-67 -77.5h-3v443h408v-443z
M282.5 233q-37.5 0 -64.5 -27t-27 -65t27 -65t64.5 -27t64.5 27t27 65t-27 65t-64.5 27zM282.5 108q-13.5 0 -23 10t-9.5 23.5t9.5 23t23 9.5t23 -9.5t9.5 -23t-9.5 -23.5t-23 -10zM775.5 233q-37.5 0 -64.5 -27t-27 -65t27 -65t64.5 -27t64.5 27t27 65t-27 65t-64.5 27z
M775.5 108q-13.5 0 -23 10t-9.5 23.5t9.5 23t23 9.5t23 -9.5t9.5 -23t-9.5 -23.5t-23 -10zM941 439l-78 104q-1 1 -5 6t-5 6t-4 4.5t-4.5 4.5t-4.5 4t-5 4t-5.5 2.5t-6 2t-6 1t-7.5 0.5h-158q-14 0 -24.5 -10t-10.5 -25v-350q0 -14 10.5 -24.5t24.5 -10.5q7 46 41.5 76.5
t81.5 30.5t81.5 -30.5t41.5 -76.5h35q14 0 24.5 10.5t10.5 24.5v175q0 15 -7 32.5t-13 28.5zM909 266q-55 58 -134 58q-54 0 -99 -29v224h130q2 -2 7 -9l3 -3l77 -103q16 -22 16 -36v-102z" />
    <glyph glyph-name="home1" unicode="&#xe609;" 
d="M953 375l-420 449q-7 7 -19 8h-5q-11 -1 -18 -8l-418 -449q-8 -9 -8 -22t10 -22v-0.5v-0.5q10 -9 22 -9h95v-353q0 -14 11 -24q9 -11 22 -11h192q13 0 22 11q12 9 12 24v9v1.5v1.5v196q0 7 4.5 11.5t11.5 4.5h93q7 0 11.5 -4.5t4.5 -11.5v-196v-1v-1v-10q0 -15 12 -24
q9 -11 22 -11h191q14 0 23 11q11 10 11 24v353h94q13 0 22 10h1q9 9 9.5 22t-8.5 22zM417 257q-12 0 -21 -9.5t-9 -22.5v-1.5v-0.5v-226h-131v355q0 7 -3 13q-8 20 -28 20h-56l325 352q12 12 18 12t17 -12l328 -352h-55q-21 0 -28 -20q-3 -6 -3 -13v-355h-131v227v0v1
q0 13 -9 22.5t-22 9.5h-192v0z" />
    <glyph glyph-name="baoyangfuwu" unicode="&#xe68b;" 
d="M725 639q-83 -81 -181 -103q-20 -5 -44 -14.5t-55 -26.5t-57.5 -45.5t-39.5 -63.5q-10 -33 -15 -66t-5.5 -60.5t2 -53t7.5 -46.5t11 -39t12.5 -31.5t11.5 -22.5t8.5 -14l3.5 -5q-13 47 -17.5 87t-2.5 68.5t12.5 53.5t20.5 39.5t29 30.5t30.5 23t32.5 18q5 3 8 5
q17 9 35 20q-1 0 -2 -1q-39 -28 -66.5 -54t-40.5 -43.5t-20.5 -38.5t-8 -29.5t-1.5 -26.5q0 -33 22 -20q121 48 159 72v0q42 22 73 52q28 29 46.5 74.5t25 89t8.5 83t0 64.5zM513 -62q-91 0 -174 35q-81 34 -142.5 96t-95.5 142q-35 83 -35 174t35 174q34 80 95.5 142
t142.5 96q83 35 174 35t174 -35q80 -34 141.5 -96t95.5 -142q36 -83 36 -174t-36 -174q-34 -80 -95.5 -142t-141.5 -96q-83 -35 -174 -35zM513 791q-110 0 -204 -54.5t-148 -148t-54 -203.5t54 -203.5t148 -148t204 -54.5t203.5 54.5t148 148t54.5 203.5t-54.5 203.5
t-148 148t-203.5 54.5z" />
    <glyph glyph-name="dashboard-o" unicode="&#xe60a;" 
d="M480 704q173 0 294.5 -121.5t121.5 -294.5q0 -80 -30.5 -154.5t-84.5 -133.5h-602q-54 59 -84.5 133.5t-30.5 154.5q0 113 55.5 209t151.5 151.5t209 55.5zM480 768q-129 0 -239.5 -65t-175.5 -175.5t-65 -239.5q0 -104 40 -193.5t114 -158.5h652q74 69 114 158.5
t40 193.5q0 129 -65 239.5t-175.5 175.5t-239.5 65v0zM480 448l96 -384h-192zM448 640h64v-128h-64v128zM128 320h128v-64h-128v64zM324 457l-45 -45l-91 91l45 45zM727 548l45 -45l-91 -91l-45 45zM704 320h128v-64h-128v64z" />
    <glyph glyph-name="user" unicode="&#xe60b;" 
d="M512 646q-55 0 -94 -39t-39 -94t39 -93.5t94 -38.5t94 38.5t39 93.5t-39 94t-94 39v0zM512 834q-92 0 -175 -36t-143.5 -96t-96 -143.5t-35.5 -175t35.5 -174.5t96 -143.5t143.5 -96t174.5 -35.5t175 35.5t143.5 96t96 143.5t36 174.5t-36 175t-96 143.5t-143.5 96
t-174.5 36v0zM744 116q-4 0 -9 4t-8 8l-3 4q-13 86 -73 142.5t-139 56.5t-139 -56.5t-73 -142.5q-4 -15 -20 -16q-17 -2 -25 2t-8 9v5q3 77 48 139t116 90q-37 25 -59 65.5t-22 86.5q0 76 53 129.5t128.5 53.5t129 -53.5t53.5 -129.5q0 -46 -22 -86.5t-59 -65.5
q71 -28 116 -90t48 -139q-1 -2 -2 -5.5t-9 -8t-22 -2.5v0zM744 116z" />
    <glyph glyph-name="fuwu-01" unicode="&#xe679;" 
d="M662 365l37 37q23 -10 52 -12q35 -3 68 5q43 12 78 43q34 29 51 73q3 8 -0.5 16t-10.5 11q-6 3 -14 1l-56 -15l-44 -13l-34 34l-33 33l12 45l12 46l101 26q9 3 13 10.5t2 15.5q-1 7 -7 11q-37 29 -81 38q-46 9 -89 -3q-77 -20 -117 -89q-39 -69 -19 -146v-2l1 -1l-43 -43
l-124 124q2 2 10 19l1 1q6 13 11 32q11 19 27 26v0q19 9 49 7q10 -2 17 6q6 6 6 14.5t-6 15.5q-49 46 -103 50q-52 4 -98 -36l-21 -9v0q-8 -4 -12 -7l-11 11q-6 6 -14.5 6t-14.5 -6l-92 -92q-6 -6 -6 -14.5t6 -14.5l11 -11l-3 -4v-1q-5 -10 -8 -15q-3 -2 -7 -3q-7 -3 -20 -2
q-10 1 -16 -6l-45 -45q-6 -6 -6 -14.5t6 -14.5l54 -54v0v0v-1h1v-1l1 -1v0l54 -54q6 -6 15 -6t15 6l45 45q6 7 6 17q-1 8 1 15v0v0q1 3 5 9q10 5 15 7v1l6 3l124 -124l-259 -258q-6 -7 -6 -15.5t6 -14.5l91 -92q6 -6 15 -6t15 6l259 259l266 -266q6 -6 14.5 -6t15.5 6l91 91
q7 7 7 15.5t-7 14.5zM314 530v0q-13 13 -28 2l-15 -10q-13 -6 -17 -8q-4 -1 -9 -6q-10 -12 -14 -25q-4 -11 -4 -22l-24 -24l-39 38l-1 1h-1v1v1h-1v0l-1 2l-38 37l24 24q13 0 23 3q17 4 29 15q4 5 5 9q1 2 8 15v1l3.5 6t6.5 10q10 15 -4 27l-6 6l62 62l7 -7q12 -12 26 -2
q12 7 22 13v0q13 5 21 8q3 1 8 4q32 31 70 29q15 -1 33 -9q-10 -4 -11 -4q-29 -14 -48 -47q-2 -4 -2 -6q-2 -10 -9 -27l-1 -1q-6 -14 -16 -28q-8 -14 3 -26v0l135 -135l-62 -62zM267 29v0l-62 62l417 418q10 9 5 21l-2 6l-1 5l-1 2q-16 60 15 114t92 70q35 9 70 2
q12 -3 21 -6l-6 -2l-57 -15q-12 -3 -15 -15l-30 -114q-3 -11 5 -20l42 -42l41 -40q8 -10 20 -6l58 15l6 1q-9 -10 -16 -16q-26 -23 -61 -33q-26 -7 -53 -5q-26 3 -51 14q-14 8 -25 -3l-412 -413v0zM822 22v0l-252 252l62 62l252 -252z" />
    <glyph glyph-name="chanpin-o" unicode="&#xe60d;" 
d="M527 448q-32 0 -56 12l-306 151q-33 16 -34 45q0 30 34 47l309 157q26 13 60 13q32 0 56 -12l306 -151q33 -16 33 -45t-33 -47l-310 -157q-25 -13 -59 -13zM187 657l307 -151q13 -6 33 -6q22 0 36 7l310 157v1l-306 150q-13 7 -33 7q-22 0 -37 -8l-309 -157h-1v0z
M463 -105q-16 0 -33 8v1l-274 143q-25 12 -41 35.5t-16 45.5v387q0 21 13 34t34 13q16 0 33 -8v-1l274 -143q25 -12 41.5 -35.5t16.5 -45.5v-387q0 -20 -13.5 -33.5t-34.5 -13.5zM453 -51q4 -1 6 -2v382q0 7 -8 18t-21 17v0l-274 144q-3 2 -6 2v-382q0 -7 8.5 -18t20.5 -17
v0l274 -144v0zM611 -105v0q-21 0 -34.5 13.5t-13.5 33.5v387q0 22 16.5 45.5t41.5 35.5l274 144q17 8 33 8q20 0 33.5 -13t13.5 -34v-387q0 -22 -16.5 -45.5t-40.5 -35.5l-275 -144q-17 -8 -32 -8zM918 508l-275 -144q-12 -6 -20.5 -17t-8.5 -18v-382q3 1 7 2l274 144
q12 6 20.5 17t8.5 18v382q-3 0 -6 -2z" />
    <glyph glyph-name="fuwu-03" unicode="&#xe682;" 
d="M916 256l-65 5v-246l-315 -68q-22 -5 -45 0l-302 63q-9 3 -9 12l-5 201q-1 12 10 13l257 22q7 1 10 8l62 149v-411l279 53v209l-165 10q-21 2 -30 22l-85 189l-86 -193q-3 -6 -9 -7l-303 -30q-7 -1 -11 4.5t-1 12.5l81 172q2 5 8 6l321 59l10 -2l317 -57q6 -1 9 -6
l78 -173q3 -6 -1 -11.5t-10 -5.5zM590 673h-37v-79q0 -6 -4.5 -10.5t-10.5 -4.5h-45q-6 0 -10.5 4.5t-4.5 10.5v79h-37q-9 0 -13 7.5t0 15.5l75 129q4 8 12.5 8t13.5 -8l74 -129q5 -8 0.5 -15.5t-13.5 -7.5z" />
    <glyph glyph-name="pingjia" unicode="&#xe60e;" 
d="M512 886q102 0 195 -40t160 -107t107 -160t40 -195t-40 -195t-107 -160t-160 -107t-195 -40t-195 40t-160 107t-107 160t-40 195t40 195t107 160t160 107t195 40zM761 366q3 10 5 20t3 22.5t1.5 19t0.5 22.5v20q2 93 2 121q0 9 -6.5 15.5t-15.5 6.5q-46 -1 -116 -32
q-9 38 -34 71q-16 21 -40 39t-45 18q-34 0 -81 -53q-28 -31 -39 -73q-58 29 -106 30q-9 0 -16 -6.5t-7 -15.5q0 -18 -1 -56t-1.5 -62.5t3 -57t12.5 -57.5q23 -65 81.5 -105.5t130.5 -49.5v-129q0 -14 11 -19.5t22 0t11 19.5v128q76 3 138.5 48.5t86.5 115.5v0zM315 397
q-3 12 -3.5 25.5t0 34.5t0.5 25v85q8 -1 16.5 -3.5t14 -4.5t15 -6t13.5 -6.5t15 -8l15 -7.5q12 -6 22 0t12 19q3 34 23.5 63.5t51.5 47.5q20 11 59 -40q22 -27 25 -66q-1 -5 1 -10q2 -12 13.5 -16t20.5 1q7 3 24.5 11t26 11.5t22.5 8t26 6.5q0 -27 -2 -139
q-2 -76 -59.5 -126.5t-136.5 -55.5q-74 -5 -136 38t-79 113v0zM353 220q-24 7 -50.5 7t-51.5 -13t-35 -35q-7 -18 11 -25q21 -8 31 10q1 2 1 3q-1 -3 4 0q19 11 19 12q44 14 83 -18q35 -28 63 -78q8 -11 19.5 -10.5t18.5 11t1 21.5q-53 91 -114 115v0zM817 173
q-10 22 -35 35t-51.5 13t-49.5 -7q-62 -24 -114 -115q-7 -11 0 -21.5t18.5 -11t19.5 10.5q26 44 63 78q31 27 74 20q17 -3 27 -11q6 -4 6 -6q0 1 -1 3q8 -19 29 -14q19 4 15 21q0 2 -1 5v0z" />
    <glyph glyph-name="chanpinguanli" unicode="&#xe817;" 
d="M512 829q-91 0 -173 -35t-142 -95t-95 -142t-35 -172.5t35 -173t95 -142.5t142 -95t173 -35t173 35t142 95t95 142.5t35 173t-35 172.5t-95 142t-142 95t-173 35zM492 113l-223 134v262l223 -134v-262zM297 546l209 109l224 -134l-217 -111zM755 226v0l-217 -111v261
l216 112v-262h1z" />
    <glyph glyph-name="fuwu" unicode="&#xe60f;" 
d="M776 470q2 -1 6 -3.5t13.5 -14t17 -27t12.5 -45t4 -66.5l41 -41q5 11 12 30.5t15 69t1 87.5q0 4 -1 10t-9 26t-21.5 40.5t-43.5 51.5t-71 61q0 1 -7 0t-17.5 2.5t-20.5 8.5t-16.5 20t-4.5 36l-57 57l-104 -104l50 -50q3 -1 7.5 -1t16.5 -3t22.5 -7t21.5 -12t17 -19
t5.5 -28t-9.5 -38l-187 -189l-36 6l-214 -214q-1 -6 -2.5 -15.5t3.5 -32t22 -36.5l8 -8t24.5 -13t41.5 -7l210 218l4 36l214 212v0q13 16 32 2zM371 446l68 -68l91 92l-70 70q20 51 14 90t-31 67t-52 45.5t-49 25.5l-22 9q-17 4 -25 -1t-7 -12v-7q38 -31 55.5 -54t16.5 -30
l-1 -8q-3 -22 -12.5 -41.5t-20.5 -31.5t-22 -21t-18 -13l-7 -3q-21 -8 -39.5 -4.5t-34.5 15.5t-27.5 24.5t-18.5 22.5l-6 10q-10 1 -15 -4t-5 -12v-6q37 -162 151 -171q48 -3 87 16zM585 224l211 -225l104 104l-222 214zM796 152l43 -31l-16 -51h-54l-16 51z" />
    <glyph glyph-name="pingjia-o" unicode="&#xe610;" 
d="M791 314q18 41 28.5 91.5t13 90t1.5 81.5t-3 58t-3 26q-12 45 -58 45q-39 0 -102 -37q-12 30 -33 60t-31 41t-17 17q-34 29 -70 29q-1 0 -2.5 -0.5t-2.5 -0.5v0l-1.5 0.5l-1.5 0.5q-37 0 -71 -29q-7 -7 -17 -17.5t-31 -40.5t-33 -60q-63 37 -102 37q-46 0 -58 -46
q-1 -9 -2.5 -25t-3 -58t1 -81.5t13 -90t28.5 -91.5q3 -7 8.5 -17.5t25.5 -34.5t46 -43t71.5 -36t99.5 -21v-182q0 -12 8 -20t19.5 -8t20 8t8.5 20v183q54 3 99.5 20t71 36.5t45.5 43.5t25.5 34.5t8.5 16.5zM285 336q-26 58 -33.5 136.5t-3.5 128t7 49.5q17 0 47 -15t54 -32
l34 -24l10 41q14 62 75 125v0q18 15 34 15h4v1l1.5 -0.5t2.5 -0.5q16 0 33 -14v0v-1q58 -57 75 -120q0 -2 1 -5l9 -40l34 24q24 17 54 31.5t47 14.5q3 0 7 -49.5t-3.5 -128t-33.5 -136.5q-3 -6 -8 -14.5t-23 -28.5t-41 -35.5t-64.5 -28t-91.5 -12.5v0q-49 0 -90.5 12.5
t-64.5 28t-41 35t-23 28.5t-8 15zM220 207q-82 5 -147 -74q-7 -9 -6 -20.5t10 -18.5t20.5 -6t18.5 10q47 57 100 53q28 -1 58.5 -18.5t55 -42.5t42 -47t29.5 -40q8 -13 23 -13q8 0 15 4q10 6 12.5 17.5t-3.5 21.5q-5 8 -13.5 20t-33 41t-49.5 51t-61.5 41t-70.5 21zM951 133
q-65 80 -147 74q-34 -2 -70.5 -21t-61.5 -41t-49.5 -51t-33 -41t-13.5 -20q-6 -10 -3.5 -21.5t12.5 -17.5q7 -4 15 -4q15 0 24 13q11 18 28.5 40t42 47t55 42.5t58.5 19.5q53 3 100 -54q7 -9 18.5 -10t20.5 6t10 18.5t-6 20.5z" />
    <glyph glyph-name="fuwu-02-copy" unicode="&#xe68c;" 
d="M662 365l37 37q23 -10 52 -12q35 -3 68 5q43 12 78 43q34 29 51 73q3 8 -0.5 16t-10.5 11q-6 3 -14 1l-56 -15l-44 -13l-34 34l-33 33l12 45l12 46l101 26q9 3 13 10.5t2 15.5q-1 7 -7 11q-37 29 -81 38q-46 9 -89 -3q-77 -20 -117 -89q-39 -69 -19 -146v-2l1 -1l-43 -43
l-124 124q2 2 10 19l1 1q6 13 11 32q11 19 27 26v0q19 9 49 7q10 -2 17 6q6 6 6 14.5t-6 15.5q-49 46 -103 50q-52 4 -98 -36l-21 -9v0q-8 -4 -12 -7l-11 11q-6 6 -14.5 6t-14.5 -6l-92 -92q-6 -6 -6 -14.5t6 -14.5l11 -11l-3 -4v-1q-5 -10 -8 -15q-3 -2 -7 -3q-7 -3 -20 -2
q-10 1 -16 -6l-45 -45q-6 -6 -6 -14.5t6 -14.5l54 -54v0v0v-1h1v-1l1 -1v0l54 -54q6 -6 15 -6t15 6l45 45q6 7 6 17q-1 8 1 15v0v0q1 3 5 9q10 5 15 7v1l6 3l124 -124l-259 -258q-6 -7 -6 -15.5t6 -14.5l91 -92q6 -6 15 -6t15 6l259 259l266 -266q6 -6 14.5 -6t15.5 6l91 91
q7 7 7 15.5t-7 14.5zM314 530v0q-13 13 -28 2l-15 -10q-13 -6 -17 -8q-4 -1 -9 -6q-10 -12 -14 -25q-4 -11 -4 -22l-24 -24l-39 38l-1 1h-1v1v1h-1v0l-1 2l-38 37l24 24q13 0 23 3q17 4 29 15q4 5 5 9q1 2 8 15v1l3.5 6t6.5 10q10 15 -4 27l-6 6l62 62l7 -7q12 -12 26 -2
q12 7 22 13v0q13 5 21 8q3 1 8 4q32 31 70 29q15 -1 33 -9q-10 -4 -11 -4q-29 -14 -48 -47q-2 -4 -2 -6q-2 -10 -9 -27l-1 -1q-6 -14 -16 -28q-8 -14 3 -26v0l135 -135l-62 -62zM267 29v0l-62 62l417 418q10 9 5 21l-2 6l-1 5l-1 2q-16 60 15 114t92 70q35 9 70 2
q12 -3 21 -6l-6 -2l-57 -15q-12 -3 -15 -15l-30 -114q-3 -11 5 -20l42 -42l41 -40q8 -10 20 -6l58 15l6 1q-9 -10 -16 -16q-26 -23 -61 -33q-26 -7 -53 -5q-26 3 -51 14q-14 8 -25 -3l-412 -413v0zM822 22v0l-252 252l62 62l252 -252z" />
    <glyph glyph-name="fuwu-01-copy" unicode="&#xe68d;" 
d="M725 639q-83 -81 -181 -103q-20 -5 -44 -14.5t-55 -26.5t-57.5 -45.5t-39.5 -63.5q-10 -33 -15 -66t-5.5 -60.5t2 -53t7.5 -46.5t11 -39t12.5 -31.5t11.5 -22.5t8.5 -14l3.5 -5q-13 47 -17.5 87t-2.5 68.5t12.5 53.5t20.5 39.5t29 30.5t30.5 23t32.5 18q5 3 8 5
q17 9 35 20q-1 0 -2 -1q-39 -28 -66.5 -54t-40.5 -43.5t-20.5 -38.5t-8 -29.5t-1.5 -26.5q0 -33 22 -20q121 48 159 72v0q42 22 73 52q28 29 46.5 74.5t25 89t8.5 83t0 64.5zM513 -62q-91 0 -174 35q-81 34 -142.5 96t-95.5 142q-35 83 -35 174t35 174q34 80 95.5 142
t142.5 96q83 35 174 35t174 -35q80 -34 141.5 -96t95.5 -142q36 -83 36 -174t-36 -174q-34 -80 -95.5 -142t-141.5 -96q-83 -35 -174 -35zM513 791q-110 0 -204 -54.5t-148 -148t-54 -203.5t54 -203.5t148 -148t204 -54.5t203.5 54.5t148 148t54.5 203.5t-54.5 203.5
t-148 148t-203.5 54.5z" />
  </font>
</defs>
</svg>
