<svg id="图层_1" data-name="图层 1" xmlns="http://www.w3.org/2000/svg" viewBox="0 0 655.36 798.72"><defs><style>.cls-1{fill:#aaa;fill-rule:evenodd;}</style></defs><title>suo</title><path class="cls-1" d="M525.16,163.32H463.72V50.68c0-117.76-97.28-199.68-215-199.68s-215,81.92-215,199.68V158.2H-27.8c-30.72,0-51.2,25.6-51.2,51.2V598.52c0,30.72,25.6,51.2,51.2,51.2h553c30.72,0,51.2-25.6,51.2-51.2v-384c0-30.72-20.48-51.2-51.2-51.2m-245.76,256v87c0,5.12-5.12,5.12-5.12,5.12H228.2c-5.12,0-5.12-5.12-5.12-5.12v-87c-25.6-10.24-41-30.72-41-56.32,0-35.84,30.72-66.56,66.56-66.56s66.56,30.72,66.56,66.56c0,25.6-15.36,46.08-35.84,56.32m102.4-256H115.56V45.56c0-61.44,61.44-112.64,133.12-112.64S381.8-15.88,381.8,45.56V163.32m0,0" transform="translate(79 149)"/></svg>