<svg id="图层_1" data-name="图层 1" xmlns="http://www.w3.org/2000/svg" viewBox="0 0 93.37 124.15"><defs><style>.cls-1{fill-rule:evenodd;}</style></defs><title>icon_lixian</title><path class="cls-1" d="M267.28,436.9c-18,19.68-46.69,56.14-46.69,75.77,0,26.68,20.94,48.38,46.69,48.38S314,539.34,314,512.66C314,493,285.3,456.58,267.28,436.9Zm-14.79,56.35a5.92,5.92,0,1,1-5.92,5.92A5.92,5.92,0,0,1,252.49,493.25Zm34.35,37.6a3,3,0,0,1-4.22-.11h0a20.9,20.9,0,0,0-30.37,0,3,3,0,0,1-4.34-4.11,26.88,26.88,0,0,1,39,0A3,3,0,0,1,286.84,530.84Zm-4.09-25.75a5.92,5.92,0,1,1,5.92-5.92A5.92,5.92,0,0,1,282.74,505.09Z" transform="translate(-220.59 -436.9)"/></svg>