<svg id="图层_1" data-name="图层 1" xmlns="http://www.w3.org/2000/svg" viewBox="0 0 182.79 204.71"><defs><style>.cls-1{fill-rule:evenodd;}</style></defs><title>icon_yajin</title><path class="cls-1" d="M383.34,284.94V227.88H355.62a5.84,5.84,0,0,1,0-11.67h27.73V203.34H355.62a5.84,5.84,0,0,1,0-11.67h19.76l-20-22.58a5.9,5.9,0,0,1,.42-8.24,5.69,5.69,0,0,1,8.11.42L389,189.55l25.94-28.1a5.68,5.68,0,0,1,8.12-.27,5.91,5.91,0,0,1,.26,8.25l-20.52,22.23h19.79a5.84,5.84,0,0,1,0,11.67H394.83v12.88h27.73a5.84,5.84,0,0,1,0,11.67H394.83v50.89a5.8,5.8,0,0,1-1.91,4.28,5.64,5.64,0,0,1-4.18,1.89" transform="translate(-297.69 -109.52)"/><path d="M389.2,314.23l-2.82-1.3-2.57-1.29c-53.12-26.7-86.11-76.64-86.11-130.33V143a9.82,9.82,0,0,1,13-9.27,63.77,63.77,0,0,0,70.66-20.47,9.81,9.81,0,0,1,15.34,0,63.76,63.76,0,0,0,70.7,20.46,9.82,9.82,0,0,1,13,9.27V181.3c0,53.69-33,103.63-86.11,130.33ZM309.69,146V181.3c0,49.09,30.42,94.9,79.39,119.56,49-24.66,79.4-70.46,79.4-119.56V145.95a75.79,75.79,0,0,1-79.41-23.18A75.79,75.79,0,0,1,309.69,146Z" transform="translate(-297.69 -109.52)"/></svg>