<svg id="图层_1" data-name="图层 1" xmlns="http://www.w3.org/2000/svg" viewBox="0 0 211.17 191.06"><defs><style>.cls-1{fill-rule:evenodd;}</style></defs><title>icon_zujin</title><path class="cls-1" d="M273.24,184.79c-2.41,7.24-12.05,7-15.67,6.95l-12.73.06,0,84.5c0,12.12-9.27,22-20.66,22H195a5.83,5.83,0,0,1,0-11.67H224.2c5.06,0,9.18-4.63,9.18-10.32l0-90.31a5.79,5.79,0,0,1,5.74-5.84c0.06,0,.1,0,0.15,0s0.1,0,.15,0l18.27-.08c1.06,0,1.94,0,2.66,0a31.19,31.19,0,0,0-3.76-3.35l-76.86-53.9-0.33-.24c-9.81-8-18.84-.56-19.84.31-0.16.14-.37,0.3-0.54,0.43L78.63,179l20.45,0a5.79,5.79,0,0,1,5.73,5.85c0,0.06,0,.12,0,0.18a5.68,5.68,0,0,1,.15.73v90.54c0,5.69,4.12,10.32,9.18,10.32h51V241.22H137.38a5.84,5.84,0,0,1,0-11.67h27.73V216.67H137.38a5.84,5.84,0,0,1,0-11.67h19.76l-20-22.58a5.9,5.9,0,0,1,.42-8.24,5.69,5.69,0,0,1,8.11.42l25.11,28.29,25.94-28.1a5.68,5.68,0,0,1,8.12-.27,5.91,5.91,0,0,1,.26,8.25L184.52,205h19.79a5.84,5.84,0,0,1,0,11.67H176.59v12.88h27.73a5.84,5.84,0,0,1,0,11.67H176.59v50.89a5.8,5.8,0,0,1-1.91,4.28,5.64,5.64,0,0,1-4.18,1.89H114.1c-11.39,0-20.66-9.86-20.66-22V190.66l-19.06,0-0.39,0c-6.38-.45-10.15-2.76-11.22-6.87-1.55-6,4.22-10.91,7.79-13.31l81.69-56.61c6-5.17,20.33-11.6,34.13-.54l76.84,53.88c4.83,3.59,12.38,10.53,10,17.62h0Z" transform="translate(-62.51 -107.22)"/></svg>