<svg id="图层_1" data-name="图层 1" xmlns="http://www.w3.org/2000/svg" viewBox="0 0 196.57 196.58"><defs><style>.cls-1{fill-rule:evenodd;}</style></defs><title>icon_shouru</title><path class="cls-1" d="M164.43,522.84a98.29,98.29,0,1,1,98.29-98.29A98.4,98.4,0,0,1,164.43,522.84Zm0-184.94a86.65,86.65,0,1,0,86.65,86.65A86.75,86.75,0,0,0,164.43,337.9Z" transform="translate(-66.15 -326.26)"/><path class="cls-1" d="M146.77,437.07a35.28,35.28,0,0,1,8.72-12.71c-25.14-.89-44.74-7.55-44.74-17.91v11.36c0,9.14,15.24,16.76,36,19.26h0Z" transform="translate(-66.15 -326.26)"/><path class="cls-1" d="M161.28,370.68c-27.91,0-50.53,9-50.53,20.19v6.75c0,11.15,22.63,20.19,50.53,20.19,1.07,0,2.09-.09,3.15-0.13a52.64,52.64,0,0,1,33.14-6c8.8-3.64,14.25-8.56,14.25-14v-6.75c0-11.15-22.63-20.19-50.53-20.19h0Z" transform="translate(-66.15 -326.26)"/><path class="cls-1" d="M149.38,464.47c-22.14-1.69-38.64-8.1-38.64-17.61v11.37c0,11.15,22.63,20.2,50.53,20.2,1,0,1.85-.09,2.8-0.12a40.62,40.62,0,0,1-14.69-13.85h0Z" transform="translate(-66.15 -326.26)"/><path class="cls-1" d="M146,457.19a30,30,0,0,1-1.56-9.07,29.33,29.33,0,0,1,.55-4.29c-19.87-2.18-34.23-8.31-34.23-17.17V438c0,9,14.86,16.56,35.25,19.17h0Z" transform="translate(-66.15 -326.26)"/><polygon class="cls-1" points="126.53 97.67 116.98 97.67 116.98 116.75 97.89 116.75 97.89 126.31 116.98 126.31 116.98 145.39 126.53 145.39 126.53 126.31 145.62 126.31 145.62 116.75 126.53 116.75 126.53 97.67 126.53 97.67"/></svg>