<svg id="图层_1" data-name="图层 1" xmlns="http://www.w3.org/2000/svg" viewBox="0 0 106.6 137.49"><defs><style>.cls-1{fill-rule:evenodd;}</style></defs><title>icon_loushui</title><path class="cls-1" d="M261.14,201.18c-18,19.68-46.69,56.14-46.69,75.77,0,26.68,20.94,48.38,46.69,48.38s46.69-21.7,46.69-48.38C307.83,257.33,279.16,220.86,261.14,201.18Zm-29.26,53h13a2.83,2.83,0,1,1,0,5.66h-13A2.83,2.83,0,0,1,231.88,254.18Zm58.52,34.91H231.88a2.83,2.83,0,1,1,0-5.65H290.4A2.83,2.83,0,1,1,290.4,289.09Zm0-29.25h-13a2.83,2.83,0,1,1,0-5.66h13A2.83,2.83,0,0,1,290.4,259.84Z" transform="translate(-214.46 -187.84)"/><path class="cls-1" d="M293.67,217.18a10.44,10.44,0,0,1-10.43-10.43c0-3.91,4.75-12.17,8.82-18.06a1.95,1.95,0,0,1,3.21,0c0.9,1.31,8.82,12.9,8.82,18.06A10.44,10.44,0,0,1,293.67,217.18ZM293.25,194c-1.43,2.26-6.09,9.85-6.09,12.75a6.51,6.51,0,1,0,13,0c0-2.9-4.66-10.49-6.09-12.75l-0.42-.67Z" transform="translate(-214.46 -187.84)"/><path class="cls-1" d="M313.45,231.3a7.61,7.61,0,0,1-7.61-7.6c0-3.45,4.59-10.37,6-12.41a2.05,2.05,0,0,1,3.22,0c2.9,4.19,6,9.66,6,12.41A7.62,7.62,0,0,1,313.45,231.3ZM313,216.67c-0.77,1.26-3.27,5.5-3.27,7a3.69,3.69,0,0,0,7.38,0c0-1.52-2.5-5.76-3.26-7l-0.43-.71Z" transform="translate(-214.46 -187.84)"/></svg>