<svg id="图层_1" data-name="图层 1" xmlns="http://www.w3.org/2000/svg" viewBox="0 0 93.37 124.15"><defs><style>.cls-1{fill-rule:evenodd;}</style></defs><title>icon_qianfei</title><path class="cls-1" d="M447.93,436.9c-18,19.68-46.69,56.15-46.69,75.77,0,26.68,20.94,48.38,46.69,48.38s46.69-21.7,46.69-48.38C494.61,493,465.95,456.58,447.93,436.9Zm-7.3,57c0,2.75-.28,11.56-5.23,16.79-5,5-10.74,7.43-14.87,4.4-4.13-3.3-3.58-8.81-.28-9.91s8.26-3.85,10.74-9.08,3.85-7.43,5.51-7.71C439.53,488.15,440.9,491.18,440.63,493.93Zm9.33,49c-0.25,4.85-1.13,6.1-2.14,6.1s-1.89-1.25-2.14-6.1-1.51-12.66-1.76-15.94c-0.25-3.13,1.76-4.06,3.78-4.06s4,0.94,3.9,4.06C451.34,530.24,450.21,538.06,450,542.9Zm1.13-24.73c-1-.51-2.22-2.22-3.42-2.22-1,0-2.22,1.71-3.42,2.22-1.2.68-1.37-.68-0.85-2.22,0.34-1.37,3.42-8.37,4.27-8.37,0.68,0,3.76,7,4.27,8.37C452.45,517.49,452.28,518.68,451.09,518.17Zm24.23-3c-4.13,3.3-9.91.83-14.87-4.4-4.68-5.23-5-14-5.23-16.79s1.1-5.78,4.13-5.51c1.65,0,3,2.48,5.51,7.71,2.48,5.51,7.43,8,10.74,9.08S479.45,511.82,475.32,515.13Z" transform="translate(-401.24 -436.9)"/></svg>