<svg id="图层_1" data-name="图层 1" xmlns="http://www.w3.org/2000/svg" xmlns:xlink="http://www.w3.org/1999/xlink" viewBox="0 0 110.01 144.95"><defs><style>.cls-1{fill:none;}.cls-2{fill-rule:evenodd;}.cls-3{clip-path:url(#clip-path);}</style><clipPath id="clip-path" transform="translate(-36.42 -674.82)"><path class="cls-1" d="M91.09,683.71c-16,17.22-48.69,56.9-48.69,78.72,0,27.78,21.84,50.38,48.69,50.38s48.69-22.6,48.69-50.38C139.77,740.61,107.09,700.93,91.09,683.71Zm-28,71.51a2.31,2.31,0,0,1-1-4.38h0L72.93,745,62,739.19h0a2.31,2.31,0,0,1,2.19-4.06h0l14.31,7.79,0.28,0.15a2.31,2.31,0,0,1-.32,4.06l-14,7.62A2.3,2.3,0,0,1,63.08,755.21Zm50.63,25.41h0a2.58,2.58,0,0,1-5.14-.1v-0.09s0-.09,0-0.14v0a17.47,17.47,0,0,0-34.92,0s0,0.09,0,.13a2.59,2.59,0,0,1-5.16.24h0c0-.05,0-0.1,0-0.16s0-.05,0-0.08,0-.1,0-0.15a22.63,22.63,0,0,1,45.25-.1c0,0.06,0,.11,0,0.17s0,0.07,0,.11S113.71,780.55,113.71,780.62Zm6.4-29.79h0a2.31,2.31,0,1,1-2.4,3.92l-14-7.62a2.31,2.31,0,0,1-.32-4.06l0.28-.15,14.32-7.8h0a2.31,2.31,0,0,1,2.19,4.06h0L109.24,745Z"/></clipPath></defs><title>icon_queshui</title><path class="cls-2" d="M124.37,765.14" transform="translate(-36.42 -674.82)"/><g class="cls-3"><path class="cls-2" d="M91.09,819.77c-31.17,0-54.67-24.59-54.67-57.21,0-31.58,47.46-81.3,52.87-86.86l0.17-.18a2.23,2.23,0,0,1,3.25,0c2.19,2.27,53.72,55.87,53.72,86.9C146.43,794,121.6,819.77,91.09,819.77Z" transform="translate(-36.42 -674.82)"/></g></svg>