<svg class="icon" viewBox="0 0 1198 1024" xmlns="http://www.w3.org/2000/svg" width="233.984" height="200"><defs><style/></defs><path d="M146.976 193.184h517.536c38.432 0 69.664-31.232 69.664-69.76V69.76c0-38.72-31.2-69.76-69.664-69.76H146.976C108.544 0 77.28 31.232 77.28 69.76v53.696c0 38.72 31.232 69.728 69.696 69.728zm428.8 251.168a387.583 387.583 0 0 1 81.152-71.616v-51.808c0-38.72-31.2-69.76-69.664-69.76H69.696c-38.4 0-69.664 31.232-69.664 69.76v53.696c0 38.72 31.2 69.76 69.664 69.76l506.112-.032zM77.28 572.096v53.696c0 38.72 31.2 69.76 69.664 69.76h336.032c0-70.4 18.816-136.352 51.712-193.184H146.976c-38.432-.032-69.696 31.2-69.696 69.728zm31.04 181.408c-38.432 0-69.664 31.232-69.664 69.76v53.696c0 38.72 31.2 69.76 69.664 69.76h467.456c-45.952-53.696-77.44-120.064-88.448-193.216H108.32zm761.12-386.4c-181.376 0-328.448 147.072-328.448 328.48C540.992 876.96 688.064 1024 869.44 1024c181.44 0 328.48-147.04 328.48-328.416-.032-181.408-147.072-328.48-328.48-328.48zm131.008 382.304c14.272 0 25.824 10.88 25.824 24.32s-11.552 24.32-25.824 24.32h-92.736v52.8c0 17.952-15.456 32.512-34.496 32.512s-34.496-14.56-34.496-32.512v-52.8h-92.736c-14.272 0-25.824-10.88-25.824-24.32s11.552-24.32 25.824-24.32h92.736v-35.136h-92.736c-14.272 0-25.824-10.88-25.824-24.32s11.552-24.32 25.824-24.32h92.736v-27.328l-93.312-89.44c-11.648-11.168-11.488-29.088.384-40.032s30.88-10.816 42.528.352l84.928 81.376 84.928-81.376c11.648-11.168 30.656-11.296 42.528-.352 11.84 10.944 12 28.896.384 40.032l-93.312 89.44v27.328h92.736c14.272 0 25.824 10.88 25.824 24.32s-11.552 24.32-25.824 24.32h-92.736v35.136h92.64z"/></svg>