<svg id="图层_1" data-name="图层 1" xmlns="http://www.w3.org/2000/svg" viewBox="0 0 110.01 144.95"><defs><style>.cls-1{fill:none}.cls-2{fill-rule:evenodd}.cls-3{clip-path:url(#clip-path)}</style><clipPath id="clip-path" transform="translate(-36.42 -674.82)"><path class="cls-1" d="M91.09 683.71c-16 17.22-48.69 56.9-48.69 78.72 0 27.78 21.84 50.38 48.69 50.38s48.69-22.6 48.69-50.38c-.01-21.82-32.69-61.5-48.69-78.72zm-28 71.51a2.31 2.31 0 0 1-1-4.38L72.93 745 62 739.19a2.31 2.31 0 0 1 2.19-4.06l14.31 7.79.28.15a2.31 2.31 0 0 1-.32 4.06l-14 7.62a2.3 2.3 0 0 1-1.38.46zm50.63 25.41a2.58 2.58 0 0 1-5.14-.1v-.23a17.47 17.47 0 0 0-34.92 0v.13a2.59 2.59 0 0 1-5.16.24v-.39a22.63 22.63 0 0 1 45.25-.1v.28c0 .04-.04.09-.04.16zm6.4-29.79a2.31 2.31 0 1 1-2.4 3.92l-14-7.62a2.31 2.31 0 0 1-.32-4.06l.28-.15 14.32-7.8a2.31 2.31 0 0 1 2.19 4.06L109.24 745z"/></clipPath></defs><title>icon_queshui</title><g class="cls-3"><path class="cls-2" d="M91.09 819.77c-31.17 0-54.67-24.59-54.67-57.21 0-31.58 47.46-81.3 52.87-86.86l.17-.18a2.23 2.23 0 0 1 3.25 0c2.19 2.27 53.72 55.87 53.72 86.9 0 31.58-24.83 57.35-55.34 57.35z" transform="translate(-36.42 -674.82)"/></g></svg>