<svg id="图层_1" data-name="图层 1" xmlns="http://www.w3.org/2000/svg" viewBox="0 0 93.37 124.15"><defs><style>.cls-1{fill-rule:evenodd}</style></defs><title>icon_lixian</title><path class="cls-1" d="M267.28 436.9c-18 19.68-46.69 56.14-46.69 75.77 0 26.68 20.94 48.38 46.69 48.38S314 539.34 314 512.66c0-19.66-28.7-56.08-46.72-75.76zm-14.79 56.35a5.92 5.92 0 1 1-5.92 5.92 5.92 5.92 0 0 1 5.92-5.92zm34.35 37.6a3 3 0 0 1-4.22-.11 20.9 20.9 0 0 0-30.37 0 3 3 0 0 1-4.34-4.11 26.88 26.88 0 0 1 39 0 3 3 0 0 1-.07 4.21zm-4.09-25.75a5.92 5.92 0 1 1 5.92-5.92 5.92 5.92 0 0 1-5.93 5.91z" transform="translate(-220.59 -436.9)"/></svg>