<svg id="图层_1" data-name="图层 1" xmlns="http://www.w3.org/2000/svg" viewBox="0 0 115.33 140.16"><defs><style>.cls-1{fill-rule:evenodd}</style></defs><title>icon_zijin</title><path class="cls-1" d="M387.88 496.74c-2.44 0-4.82-2.17-4.82-3.79v-18.27H338.9c-1.53 0-5.79-2.45-5.79-7.23s3.92-7.23 5.3-7.23h44.64v-28.86h-21.67v8.11l-29.65-15.11 29.65-16.49v9h21.67V406l-38.44-40.08c-2.23-2.23-3.33-5.85-1.46-7.72a6 6 0 0 1 8.19 0L388 394.25l36-36.06a5 5 0 0 1 3.61-1.39 6.51 6.51 0 0 1 4.58 1.87 6.64 6.64 0 0 1 0 8.67l-39.37 38.2v11.26l48.5.1c1.54 0 3.8 3.07 3.8 7.23 0 4.76-2.26 7.23-3.79 7.23l-48.54.11v28.87l25.57-.15v-9.74l28.7 16.55-28.69 17.3v-9.62H392.7V493c0 1.57-2.38 3.74-4.82 3.74z" transform="translate(-331.73 -356.58)"/></svg>